<?xml version="1.0" standalone="no"?>
<!DOCTYPE svg PUBLIC "-//W3C//DTD SVG 1.1//EN" "http://www.w3.org/Graphics/SVG/1.1/DTD/svg11.dtd" >
<svg>
<metadata>
Created by FontForge 20110222 at Mon Mar  7 10:41:39 2011
 By www-data
Copyright (c) Benot Sjholm, 2008. All rights reserved.
</metadata>
<defs>
<font id="Olivia01" horiz-adv-x="683" >
  <font-face 
    font-family="Olivia01"
    font-weight="400"
    font-stretch="normal"
    units-per-em="1000"
    panose-1="0 0 0 0 0 0 0 0 0 0"
    ascent="750"
    descent="-250"
    x-height="620.5"
    cap-height="922"
    bbox="-180 -668.045 1323 935.178"
    underline-thickness="50"
    underline-position="-50"
    unicode-range="U+0020-007A"
  />
    <missing-glyph />
    <glyph glyph-name="space" unicode=" " horiz-adv-x="425" 
 />
    <glyph glyph-name="space" unicode="&#xa0;" horiz-adv-x="425" 
 />
    <glyph glyph-name="e" unicode="e" horiz-adv-x="682" 
d="M440 604q39 -20 67.5 -51.5t46.5 -69.5t24.5 -82t0.5 -90h-437q-8 -41 -6 -78.5t12.5 -68.5t30 -54.5t46.5 -35.5q26 -11 54.5 -9.5t57 13.5t55.5 33.5t50 51.5l60 -35q-35 -44 -79 -74t-92 -43.5t-97.5 -10t-94.5 27.5q-52 27 -85.5 73.5t-47 103.5t-5.5 119.5t39 122.5
t78 102t101.5 63t111.5 20t109 -28zM521 356q8 71 -15 126.5t-72 77.5q-34 14 -72 7.5t-74 -29.5t-68 -62t-54 -89q-3 -8 -6 -15.5t-6 -15.5h367z" />
    <glyph glyph-name="f" unicode="f" horiz-adv-x="592" 
d="M186 0q-45 1 -79 16.5t-59 40.5v235h-48v46h48v208q0 53 13 109.5t34 98.5q31 60 77.5 101t100 61.5t110 18.5t108.5 -29q66 -36 103 -102q-10 -5 -20 -9t-19 -9q-23 54 -71 75q-34 15 -72 9t-75 -28.5t-69 -61t-54 -88.5q-16 -38 -22 -83t-6 -80v-191h195v-46h-195v-292
v0z" />
    <glyph glyph-name="g" unicode="g" 
d="M530 167q27 -33 42.5 -74.5t19 -86.5t-5 -92t-30.5 -92q29 -66 26.5 -143.5t-41.5 -152.5q-32 -60 -79 -102t-101.5 -63.5t-111.5 -20.5t-109 28t-85.5 73.5t-47 103.5t-5.5 119.5t39 122.5t78 102t101.5 63.5t112 20t109.5 -28.5q20 -10 37 -23.5t31 -29.5
q26 68 24 131.5t-28 108.5q-35 -45 -79 -75.5t-93 -44.5t-99 -10.5t-95 27.5q-52 27 -85.5 73.5t-47 103.5t-5.5 119.5t39 122.5t78 102t101.5 63t112 20t109.5 -28t85.5 -73.5t47 -103.5t5.5 -119.5t-39 -122.5q-3 -5 -5.5 -9t-5.5 -9zM493 247q22 50 28 100t-1.5 92.5
t-29 74t-55.5 46.5q-34 14 -72 7.5t-74 -29.5t-68 -62t-53 -89q-22 -50 -28 -100t1.5 -92.5t29 -74t55.5 -46.5q34 -14 72 -7.5t74 29.5t68 62t53 89zM493 -413q22 50 28 100t-1.5 92.5t-29 74t-55.5 46.5t-72 8.5t-74 -29.5t-68 -62t-53 -89q-22 -50 -28 -100t1.5 -92.5
t29 -74.5t55.5 -46q34 -15 72 -8.5t74 29.5t68 62t53 89z" />
    <glyph glyph-name="h" unicode="h" 
d="M442 592q71 -37 107.5 -107.5t33.5 -154.5v-330h-54h-4v369q2 63 -21 111t-68 67q-34 15 -72 8.5t-74 -29.5t-68 -62t-54 -89q-17 -38 -24 -76t-6 -73v-226h-138v858q32 31 67.5 47.5t70.5 16.5v-371q34 27 72 44t77.5 22.5t79 -0.5t75.5 -25z" />
    <glyph glyph-name="i" unicode="i" horiz-adv-x="238" 
d="M143 790q0 -31 -21.5 -52.5t-52.5 -21.5t-53 21.5t-22 52.5t22 53t53 22t52.5 -22t21.5 -53zM138 622q-35 0 -70.5 -17t-67.5 -48v-553v-4h138v4v618z" />
    <glyph glyph-name="j" unicode="j" horiz-adv-x="368" 
d="M271 790q0 -31 -22 -52.5t-53 -21.5t-52.5 21.5t-21.5 52.5t21.5 53t52.5 22t53 -22t22 -53zM265 622q-35 0 -70.5 -17t-67.5 -48v-956q0 -51 -12 -87t-31.5 -59.5t-43.5 -36.5t-48 -17.5t-46 -2.5t-37 8q-18 8 -30 19l-59 -63q1 -1 1.5 -1t1.5 -1q52 -27 109 -28
t111.5 20t101.5 63t78 102q22 41 32 83t10 84v938z" />
    <glyph glyph-name="k" unicode="k" horiz-adv-x="655" 
d="M497 274q28 -37 42.5 -82.5t14.5 -96.5v-95h-58v130q0 24 -4.5 50t-14.5 49q-5 9 -11 19q-5 8 -12.5 17.5t-16.5 17.5q-15 13 -35.5 20.5t-46.5 7.5q-45 0 -84.5 -26t-69 -61t-46.5 -70t-17 -54v-100h-138v858q32 31 67.5 47.5t70.5 16.5v-371q29 22 61 37.5t65.5 22.5
t66.5 3.5t64 -19.5q40 -21 68 -56t41.5 -78t12 -91t-19.5 -96zM452 321q12 39 14 76.5t-6.5 69t-26 55.5t-43.5 35q-29 12 -61.5 7t-64 -25.5t-58.5 -53.5t-46 -76q-8 -18 -13.5 -36.5t-8.5 -36.5v-10q64 41 136.5 47.5t138.5 -27.5q11 -5 20.5 -11.5t18.5 -13.5z" />
    <glyph glyph-name="l" unicode="l" horiz-adv-x="635" 
d="M0 871q32 31 67.5 47.5t70.5 16.5v-668h1q-5 -67 18 -119.5t70 -72.5q29 -12 61 -9.5t63.5 18.5t60.5 43.5t53 64.5l71 -16q-32 -57 -78.5 -97t-100 -60t-109.5 -18.5t-107 28.5q-34 18 -60.5 44.5t-44.5 59.5t-27 71t-9 78v589z" />
    <glyph glyph-name="m" unicode="m" horiz-adv-x="1128" 
d="M0 269q0 41 10 83t31 83q30 57 74.5 97.5t95.5 63.5h1q10 4 14 6h2q4 2 7 3t7 2l1 1q50 15 101 11.5t98 -27.5q29 -15 52.5 -37t41.5 -49q26 30 56.5 52.5t64.5 37.5h1q4 2 14 6h1q10 4 15 5l1 1q50 15 100.5 11.5t97.5 -27.5q34 -18 60.5 -44t44.5 -58.5t27 -70t9 -77.5
v-342h-58v376q0 27 -5.5 55.5t-18 53t-33.5 43t-51 25.5q-13 4 -33 4q-51 0 -95.5 -31t-78 -78t-53 -103t-19.5 -106v-239h-59v376q0 23 -3.5 47t-12.5 46q-12 30 -34 53t-57 31q-8 2 -16.5 3t-17.5 1q-50 0 -94.5 -31t-78 -78t-53 -103t-19.5 -106v-39.5t-0.5 -62t-0.5 -71
v-66.5q-45 1 -79 16.5t-58 40.5v212z" />
    <glyph glyph-name="n" unicode="n" horiz-adv-x="684" 
d="M0 269q0 41 10.5 83t31.5 83q30 57 74 97.5t96 63.5h1q4 2 7 3t7 3h2q7 4 14 5l1 1q50 15 101 11.5t98 -27.5q34 -18 60 -44t44 -58.5t27.5 -70t9.5 -77.5v-342h-59v376q0 27 -5.5 55.5t-18 53t-33.5 43t-51 25.5q-13 4 -33 4q-51 0 -95.5 -31t-78 -78t-53 -103
t-19.5 -106v-239q-45 1 -79 16.5t-59 40.5v212z" />
    <glyph glyph-name="o" unicode="o" 
d="M442 592q52 -27 85.5 -73.5t47 -103t5.5 -119t-39 -122.5t-78 -102t-101.5 -63.5t-111.5 -20t-109 28.5t-85.5 73.5t-47 103t-5.5 119t39 122.5t78 102t101.5 63.5t112 20t108.5 -28.5zM494 235q22 50 28 100t-1.5 92.5t-29 74t-55.5 46.5t-72 8.5t-74 -29.5t-68 -62
t-54 -89q-21 -50 -27.5 -100t1.5 -92.5t29.5 -74t55.5 -46.5t71.5 -8.5t74 29.5t68 62t53.5 89z" />
    <glyph glyph-name="p" unicode="p" 
d="M442 605q52 -27 85.5 -73.5t47 -103.5t5.5 -119.5t-39 -122.5t-78 -102t-101.5 -63.5t-111.5 -20t-109 28.5q-1 0 -1.5 0.5t-1.5 0.5v-318q-45 1 -79.5 16.5t-58.5 39.5v507q-2 88 42 172q31 60 78 102t101.5 63.5t111.5 20.5t109 -28zM494 247q22 50 28 100t-1.5 92.5
t-29 74t-55.5 46.5t-72 8.5t-74 -29.5t-68 -62t-54 -89q-14 -34 -21.5 -67.5t-8.5 -65.5v-19q2 -57 24.5 -100t64.5 -61q34 -15 71.5 -8.5t74 29.5t68 62t53.5 89z" />
    <glyph glyph-name="q" unicode="q" 
d="M583 349v-638q-45 1 -79 16t-59 40v301q-34 -27 -72 -43.5t-77.5 -22t-79 0.5t-75.5 25q-52 27 -85.5 73.5t-47 103t-5.5 119t39 122.5t78 102t101.5 63.5t111.5 20t109 -28.5q67 -35 103 -100.5t38 -143.5v-10zM494 246q22 50 28 100t-1.5 92.5t-29 74t-55.5 46.5
t-72 8.5t-74 -29.5t-68 -62t-54 -89q-21 -50 -27.5 -100t1.5 -92.5t29.5 -74t55.5 -46.5t71.5 -8.5t74 29.5t68 62t53.5 89z" />
    <glyph glyph-name="r" unicode="r" horiz-adv-x="630" 
d="M0 236q0 53 12.5 109.5t34.5 97.5q31 60 77.5 101.5t99.5 61.5t109.5 18t108.5 -29q71 -37 108 -110q-11 -5 -21 -9.5t-19 -8.5q-11 29 -29.5 51t-44.5 33q-34 15 -72 9t-75 -28.5t-69 -61t-54 -88.5q-17 -38 -23 -83t-5 -80v-219q-45 1 -79 16t-59 40v180z" />
    <glyph glyph-name="s" unicode="s" horiz-adv-x="569" 
d="M259 6q-59 -12 -104.5 -2.5t-78 27.5t-51.5 38t-25 29l93 61q9 -27 26 -48q14 -18 38 -33t60 -15q30 0 55 8.5t44 21.5t31.5 28.5t17.5 29.5q10 28 8.5 49.5t-11 36.5t-25 25t-33.5 15q-10 3 -28 7.5t-38.5 10t-39.5 10.5t-32 9q-30 9 -53.5 26t-38.5 39t-21 47t-1 51
q9 45 33 75t55 48t65 25t63 7q18 0 42.5 -4t51.5 -14.5t54 -29.5t49 -48l-33 -22q-24 33 -56 45.5t-64.5 10t-60.5 -16.5t-45 -35q-9 -11 -16 -29.5t-5.5 -38t16 -36.5t49.5 -26q27 -7 56 -15t49 -16q13 -5 36 -15.5t42.5 -31t30 -53t-0.5 -81.5q-5 -19 -17.5 -44
t-36.5 -49.5t-61 -45.5t-89 -31z" />
    <glyph glyph-name="t" unicode="t" horiz-adv-x="646" 
d="M46 736q32 31 67.5 48t70.5 17v-188h265v-46h-265v-312q-2 -64 20.5 -113t68.5 -69q26 -12 55 -10.5t58.5 14t57 35.5t51.5 54l72 -16q-33 -51 -78.5 -86t-96.5 -51.5t-104 -13.5t-101 28q-34 18 -60.5 44.5t-44.5 59.5t-27 71t-9 78v287h-46v46h46v123z" />
    <glyph glyph-name="u" unicode="u" horiz-adv-x="684" 
d="M0 569q32 31 67.5 48t70.5 17v-381q0 -94 39.5 -141t101.5 -47q42 0 86 20.5t79.5 60.5t58 99t22.5 135v254h58v-280q0 -80 -27 -145t-72 -111.5t-104.5 -72t-124.5 -25.5q-40 0 -85 16t-82.5 50.5t-62.5 89.5t-25 132v281z" />
    <glyph glyph-name="v" unicode="v" horiz-adv-x="666" 
d="M327 176l221 458h59l-319 -660l-318 660h137l220 -458v0z" />
    <glyph glyph-name="w" unicode="w" horiz-adv-x="1128" 
d="M445 569q32 31 67.5 48t70.5 17v-381q0 -93 40 -140.5t101 -47.5q42 0 86 20.5t79.5 60.5t58 99t22.5 135v254h58v-280q0 -80 -27 -145t-72 -111.5t-104.5 -72t-124.5 -25.5q-26 0 -53.5 6.5t-54.5 20t-52 34t-45 49.5q-46 -53 -108.5 -81.5t-131.5 -28.5q-40 0 -85 16
t-82.5 50.5t-62.5 89.5t-25 132v281q32 31 67.5 48t70.5 17v-381q0 -94 39.5 -141t100.5 -47q50 0 99.5 27t86.5 80q-19 52 -19 116v281z" />
    <glyph glyph-name="x" unicode="x" horiz-adv-x="682" 
d="M442 333q34 -18 60.5 -44t44.5 -58.5t27 -70t9 -77.5v-83h-58v117q0 27 -5.5 55.5t-18 53t-33.5 43t-51 25.5q-13 4 -33 4q-47 0 -88.5 -25.5t-74 -67.5t-54 -95.5t-27.5 -109.5h-140q1 41 11 88.5t31 87.5q23 44 54.5 78.5t69.5 57.5q-31 12 -60.5 34t-52.5 53.5
t-37.5 74t-15.5 96.5q32 31 67.5 47.5t70.5 16.5v-87q0 -93 39.5 -140.5t100.5 -47.5h10t10 1q6 0 9 1q40 4 78.5 21t69.5 50t50 82.5t19 119.5h58q-3 -100 -47 -174.5t-113 -116.5q5 -2 10 -4.5t10 -5.5z" />
    <glyph glyph-name="y" unicode="y" 
d="M0 569q32 31 67 48t70 17v-381q0 -93 40 -140.5t101 -47.5q43 0 87 20.5t80 61.5q35 41 57 99t22 134v254h59v-618v-320q0 -85 -42 -166q-32 -60 -79 -102t-101.5 -63.5t-111.5 -20t-109 28.5q-1 0 -1.5 0.5t-1.5 0.5l59 63q13 -11 30 -18q15 -6 37 -8.5t46.5 2
t48.5 17.5t43.5 36.5t31.5 59.5t12 87v403v47q-42 -30 -90 -46.5t-100 -16.5q-40 0 -85 16t-82.5 50.5t-62.5 89.5t-25 132v281z" />
    <glyph glyph-name="z" unicode="z" horiz-adv-x="711" 
d="M611 634v-64l-418 -505h418v-65h-611v65l431 505h-431v64h611v0z" />
    <glyph glyph-name="d" unicode="d" horiz-adv-x="684" 
d="M446 869q32 31 67.5 48t70.5 17v-577q1 -42 -9.5 -86t-32.5 -86q-31 -60 -78 -102t-101.5 -63t-112 -20t-109.5 28q-51 27 -85 73.5t-47.5 103.5t-5.5 119.5t39 122.5t78.5 102t102 63t111.5 20t109 -28q1 -1 1.5 -1t1.5 -1v267zM495 247q21 50 27.5 100t-1.5 92
t-29.5 74t-55.5 46q-34 15 -71.5 8.5t-74 -29.5t-68 -62t-53.5 -89t-28 -100t1.5 -92.5t29 -74t55.5 -46.5t72 -8.5t74 30t68 62.5t54 89z" />
    <glyph glyph-name="a" unicode="a" 
d="M442 592q34 -18 60.5 -44t44.5 -58.5t27 -70t9 -76.5v-2v-341q-45 2 -79 17t-59 40q-34 -27 -72 -44t-77.5 -22.5t-79 0.5t-75.5 25q-52 27 -85.5 73.5t-47 103.5t-5.5 119.5t39 122.5t78 102t101.5 63.5t111.5 20t109 -28.5zM494 235q22 50 28 100t-1.5 92.5t-29 74
t-55.5 46.5t-72 8.5t-74 -30t-68 -62.5t-54 -89q-21 -50 -27.5 -100t1.5 -92t29.5 -74t55.5 -46q34 -15 71.5 -8.5t74 29.5t68 62t53.5 89z" />
    <glyph glyph-name="b" unicode="b" 
d="M442 604q52 -27 85.5 -73.5t47 -103.5t5.5 -119.5t-39 -122.5t-78 -102t-101.5 -63t-111.5 -20t-109 28q-34 18 -60.5 44.5t-44.5 59.5t-27 71t-9 78v589q32 30 67.5 47t70.5 17v-371q34 27 72 44t77.5 22.5t79 -0.5t75.5 -25zM494 247q22 50 28 100t-1.5 92t-29 74
t-55.5 46q-34 15 -72 8.5t-74 -29.5t-68 -62t-54 -89q-21 -50 -27.5 -100t1.5 -92.5t29.5 -74t55.5 -46.5t71.5 -8.5t74 30t68 62.5t53.5 89z" />
    <glyph glyph-name="c" unicode="c" horiz-adv-x="624" 
d="M227 74q26 -11 54.5 -9.5t57 13.5t55.5 33.5t51 51.5l59 -35q-35 -44 -79 -74t-92 -43.5t-97.5 -10t-94.5 27.5q-52 27 -85.5 73.5t-47 103.5t-5.5 119.5t39 122.5t78 102t101.5 63t112 20t108.5 -28q26 -13 46 -31t37 -39l-34 -22q-11 16 -24.5 28t-30.5 19
q-34 15 -72 8.5t-74 -29.5t-68 -62t-54 -89q-21 -50 -27.5 -100t1.5 -92.5t29.5 -74t55.5 -46.5z" />
    <glyph glyph-name="A" unicode="A" 
d="M442 894q34 -18 60.5 -44t44.5 -58.5t27 -70t9 -77.5v-644h-58v220q-1 59 -23.5 104.5t-65.5 63.5q-34 15 -72 8.5t-74 -29.5t-68 -62t-54 -89q-28 -67 -30 -132v-84q-45 1 -79 16.5t-59 40.5v514q0 85 42 166q30 57 74 97.5t96 63.5h1q4 2 14 6l1 1q4 1 7.5 2t6.5 2
q1 0 1 1q51 15 101.5 12t97.5 -28zM525 678q0 27 -5.5 55.5t-18 53t-33.5 43t-51 25.5q-13 4 -33 4q-51 0 -95.5 -30.5t-78 -77.5t-53 -103t-19.5 -107v-148q34 27 72 43.5t77.5 22t79 -0.5t75.5 -25q51 -28 83 -70v315z" />
    <glyph glyph-name="B" unicode="B" 
d="M442 604q52 -27 85.5 -73.5t47 -103.5t5.5 -119.5t-39 -122.5t-78 -102t-101.5 -63t-111.5 -20t-109 28q-34 18 -60.5 44.5t-44.5 59.5t-27 71t-9 78v579q29 22 61.5 37.5t65.5 22t66.5 3t63.5 -19.5q36 -18 61.5 -47.5t40.5 -66t18.5 -78t-5.5 -83.5q18 -4 35.5 -9.5
t34.5 -14.5zM252 865q-26 11 -55.5 8t-58.5 -19v-291q40 32 85 49.5t92 19.5q12 39 13 76t-7 68t-25.5 54.5t-43.5 34.5zM494 247q22 50 28 99.5t-1.5 92t-29 74t-55.5 46.5t-72 8.5t-74 -29.5t-68 -62t-53 -89q-22 -50 -28 -100t1.5 -92.5t29 -74t55.5 -46.5t72 -8.5t74 30
t68 62.5t53 89z" />
    <glyph glyph-name="C" unicode="C" horiz-adv-x="646" 
d="M0 538q0 53 13 109.5t34 97.5q31 60 77.5 101t100 61.5t110 18.5t108.5 -29q33 -17 59 -43t44 -58q-10 -5 -20 -9.5t-19 -8.5q-11 26 -29 45t-42 30q-34 14 -72 8t-75 -28.5t-69 -61t-54 -88.5q-16 -38 -22.5 -82.5t-5.5 -79.5v-254h1q-5 -67 18 -119.5t70 -72.5
q29 -12 61 -9.5t63.5 18.5t60.5 43.5t53 64.5l71 -16q-32 -57 -78.5 -97t-100 -60t-109.5 -18.5t-107 28.5q-34 18 -60.5 44.5t-44.5 59.5t-27 71t-9 78v256z" />
    <glyph glyph-name="D" unicode="D" horiz-adv-x="710" 
d="M331 907q83 -23 138.5 -72t88 -112.5t44.5 -136.5t7.5 -145.5t-23 -139t-45.5 -115.5q-33 -60 -80.5 -102.5t-101 -63.5t-110 -19.5t-108.5 28.5q-35 18 -61 44.5t-44 59.5t-27 71t-9 78v578q37 29 86 46q42 14 103.5 18.5t141.5 -17.5zM494 247q13 29 24 72t18 92
t7.5 102t-7.5 102.5t-27 93.5t-51 75q-57 54 -113.5 72t-102.5 17q-54 -1 -104 -19v-597q-2 -64 20.5 -113t67.5 -69q34 -15 71.5 -8.5t74 30t68.5 62t54 88.5z" />
    <glyph glyph-name="E" unicode="E" horiz-adv-x="646" 
d="M227 75q28 -12 60 -9.5t63.5 18.5t61 43.5t53.5 64.5l71 -16q-32 -57 -79 -97t-100 -60t-109 -18.5t-107 28.5q-34 18 -60.5 44.5t-44.5 59.5t-27 71t-9 78v255q0 54 12.5 110t34.5 98q31 60 77.5 101t100 61.5t110 18.5t107.5 -29q34 -17 60 -43.5t44 -58.5
q-10 -4 -20 -8.5t-19 -9.5q-11 26 -29 45.5t-42 29.5q-34 15 -72 9t-75 -28.5t-69 -61t-54 -88.5q-17 -38 -23 -82.5t-5 -79.5v-58h234v-46h-234v-151q-4 -66 19 -118.5t70 -72.5z" />
    <glyph glyph-name="F" unicode="F" horiz-adv-x="616" 
d="M0 533q0 54 12.5 110t34.5 98q31 60 77.5 101t100 61.5t110 18.5t107.5 -29q67 -36 104 -102q-10 -5 -20 -9t-19 -9q-23 54 -71 75q-34 15 -72 9t-75 -28.5t-69 -61t-54 -88.5q-17 -38 -23 -82.5t-5 -79.5v-57h195v-45h-195v-415q-45 1 -79 16.5t-59 40.5v476z" />
    <glyph glyph-name="G" unicode="G" 
d="M583 462v-112q0 -41 -10.5 -82.5t-31.5 -82.5q-31 -60 -78 -102t-101.5 -63t-111.5 -20t-109 28q-68 36 -105 104.5t-36 149.5v254q0 53 13 109.5t34 97.5q31 60 77.5 101t100 61.5t110 18.5t108.5 -29q30 -16 54 -38.5t42 -50.5q-10 -5 -19.5 -9t-18.5 -9q-23 45 -65 63
q-34 14 -72 8t-75 -28.5t-69 -61t-54 -88.5q-16 -38 -22.5 -82.5t-5.5 -79.5v-253q-4 -67 19 -119.5t70 -72.5q34 -14 71.5 -7.5t74 29.5t68 62t53.5 89q29 68 31 135v35h-233v45h291z" />
    <glyph glyph-name="H" unicode="H" 
d="M583 921v-921h-58v231q-3 55 -25.5 97t-63.5 60q-34 14 -72 7.5t-74 -29.5t-68 -62t-53 -89q-14 -33 -21.5 -66t-9.5 -65v-81v-3h-138v3v854q32 31 67.5 47.5t70.5 16.5v-543q0 9 1 14q34 27 72 43.5t77.5 22t79 -0.5t75.5 -25q48 -25 82 -69v558h58z" />
    <glyph glyph-name="I" unicode="I" horiz-adv-x="238" 
d="M138 4v-4h-138v4v853q32 31 67.5 48t70.5 17v-918z" />
    <glyph glyph-name="J" unicode="J" horiz-adv-x="680" 
d="M580 351q0 -42 -9.5 -84.5t-30.5 -83.5q-31 -60 -78 -102t-101.5 -63t-112 -20t-108.5 28q-63 33 -99 93t-41 132h137q-2 -51 13 -92.5t44 -66.5q13 -12 30 -18q15 -6 37 -8.5t46.5 2t48.5 17.5t43.5 36.5t31.5 59.5t12 87v589q32 31 67 48t70 17v-571v0z" />
    <glyph glyph-name="K" unicode="K" 
d="M442 433q34 -18 60.5 -45t44.5 -60t27 -71t9 -78v-179h-58v211q2 63 -21 110.5t-68 66.5q-34 15 -72 9t-75 -28.5t-69 -61t-54 -88.5q-14 -34 -20.5 -74t-7.5 -74v-67v-4h-138v4v662v11v161v19q32 31 67.5 48t70.5 17v-261v-6v-29q3 -55 25.5 -97t63.5 -59
q34 -15 71.5 -8.5t74 29.5t68 62t53.5 89q15 35 22.5 69.5t8.5 66.5v144h58v-176q0 -84 -42 -165q-23 -44 -54.5 -78.5t-69.5 -58.5q7 -2 13 -5z" />
    <glyph glyph-name="L" unicode="L" horiz-adv-x="670" 
d="M571 259q-5 -20 -12.5 -38.5t-16.5 -37.5q-32 -60 -79 -102t-101.5 -63t-111.5 -20t-109 28q-69 36 -105 104.5t-36 149.5v2v575q32 31 67.5 48t70.5 17v-655h1v-3q-1 -5 -1 -8.5v-7.5q0 -61 22.5 -107.5t66.5 -65.5q29 -12 61 -9t63.5 18.5t60.5 43t53 64.5h2
q14 23 27 53q2 4 6 14h71z" />
    <glyph glyph-name="M" unicode="M" horiz-adv-x="738" 
d="M357 464l221 458h60v-922h-59v801l-260 -539l-181 376v-634v-4h-138v4v853q32 31 67.5 48t70.5 17z" />
    <glyph glyph-name="N" unicode="N" horiz-adv-x="713" 
d="M556 230v691h58v-921h-58l-418 687v-684v-3h-138v3v854q32 31 67.5 47.5t70.5 16.5z" />
    <glyph glyph-name="O" unicode="O" 
d="M443 894q34 -18 60.5 -45t44.5 -60t27 -71t9 -78l-1 -293q0 -41 -10.5 -82.5t-31.5 -81.5q-31 -60 -78 -102t-101.5 -63.5t-111.5 -20.5t-109 28q-34 18 -60.5 45t-44.5 60t-27 71t-9 78v255q0 53 13 109.5t34 98.5q31 60 77.5 101t100 61.5t110 18.5t108.5 -29zM525 672
q2 62 -21 110t-68 67q-34 15 -72 9t-75 -28.5t-69 -61t-54 -88.5q-16 -38 -22.5 -82.5t-5.5 -79.5v-255h1q-5 -67 18 -119t70 -72q34 -15 71.5 -8.5t74 29.5t68 62t53.5 89q29 68 31 135v293z" />
    <glyph glyph-name="P" unicode="P" 
d="M0 534q0 53 12.5 109.5t34.5 98.5q31 60 77.5 101t99.5 61.5t109.5 18.5t108.5 -29q34 -18 60.5 -45t44.5 -60t27 -71t9 -78v-121q0 -84 -42 -165q-31 -60 -78 -102t-101.5 -63t-111.5 -20t-109 28q-1 0 -1.5 0.5t-1.5 0.5v-198q-45 1 -79 16t-59 40v478zM138 401
q2 -56 24.5 -98t63.5 -60q34 -15 72 -8.5t74 29.5t68 62t54 89q28 69 30 136l1 121q1 62 -21.5 110t-67.5 67q-34 15 -72.5 9t-75 -28.5t-69 -61t-53.5 -88.5q-17 -38 -23 -82.5t-5 -79.5v-117z" />
    <glyph glyph-name="Q" unicode="Q" horiz-adv-x="684" 
d="M584 348q-1 -20 -3.5 -41t-7.5 -42q11 -42 11 -86v-179h-59v155q-33 -52 -79 -88.5t-97.5 -54t-105 -15t-102.5 28.5q-34 18 -60.5 44.5t-44.5 59.5t-27 71t-9 78l1 256q0 53 12.5 109.5t33.5 97.5q31 60 77.5 101t100 61.5t110 18.5t108.5 -29q68 -36 105 -104.5
t36 -149.5v-292zM494 245q6 13 10.5 26t8.5 27q-11 32 -30 55.5t-47 34.5q-34 15 -72 9t-75 -28.5t-69 -61t-54 -88.5q-5 -12 -9 -26t-7 -28q10 -32 29.5 -56.5t47.5 -36.5q34 -14 72 -7.5t74 29.5t68 62t53 89zM525 672q2 63 -21 110.5t-68 67.5q-34 14 -72 8t-75 -28.5
t-69 -61t-54 -88.5q-16 -37 -22 -82t-6 -80v-125q68 55 149 66.5t156 -26.5q49 -26 81 -69q1 5 1 8.5v7.5v292z" />
    <glyph glyph-name="R" unicode="R" 
d="M541 470q-36 -68 -92 -114l134 -223v-133h-58l-181 298q-51 -16 -103 -13t-100 28q-1 0 -1.5 0.5t-1.5 0.5v-314q-45 1 -79 16t-59 40v478q0 53 13 109.5t34 97.5q31 60 77.5 101.5t100 61.5t110 18t108.5 -29q34 -18 60.5 -44.5t44 -59.5t26.5 -71t9 -78v-5
q0 -84 -42 -165zM227 359q34 -15 71.5 -8.5t74 29.5t68 62t53.5 89q15 35 22.5 69.5t8.5 66.5v5q2 62 -21 109.5t-68 67.5q-34 15 -72 9t-75 -28.5t-69 -61t-54 -88.5q-16 -38 -22.5 -83t-5.5 -80q2 -56 24.5 -98t64.5 -60z" />
    <glyph glyph-name="S" unicode="S" horiz-adv-x="684" 
d="M138 268q-4 -66 19 -118.5t70 -72.5q45 -20 95 -4t92 62q30 33 37 76t-11 86t-62 79t-117 55q-67 18 -116.5 45.5t-78 65.5t-34 86.5t14.5 107.5q21 61 66 102.5t101 61.5t116.5 17.5t111.5 -29.5q34 -18 60.5 -45t44.5 -60t27 -71t9 -78l-58 32q2 62 -21 110t-68 67
q-37 15 -74 12.5t-69.5 -16.5t-57.5 -36.5t-38 -49.5q-13 -26 -16 -52.5t12 -51.5t54 -48.5t110 -42.5q74 -21 123.5 -59.5t72.5 -88t20.5 -107t-32.5 -115.5q-30 -60 -77 -102.5t-101.5 -63.5t-112 -19.5t-109.5 28.5q-34 18 -60.5 44.5t-44.5 59.5t-27 71t-9 78z" />
    <glyph glyph-name="T" unicode="T" horiz-adv-x="684" 
d="M584 858h-223v-858q-45 1 -79.5 16.5t-58.5 40.5v801h-223v64h584v-64z" />
    <glyph glyph-name="U" unicode="U" horiz-adv-x="684" 
d="M-1 857q32 31 67.5 47.5t70.5 16.5v-658q-5 -67 18 -119t70 -72q34 -15 72 -8.5t74 29.5t68 62t54 89q28 69 30 135v542h59v-574q-1 -41 -11 -82.5t-31 -81.5q-31 -60 -78 -102t-101.5 -63.5t-112 -20.5t-108.5 28q-35 18 -61 45t-44 60t-27 71t-9 78v578z" />
    <glyph glyph-name="V" unicode="V" horiz-adv-x="845" 
d="M417 0h-55l-362 876q65 45 120 45l302 -731l298 731h65z" />
    <glyph glyph-name="W" unicode="W" horiz-adv-x="1383" 
d="M370 0h-52l-362 876q65 45 120 45l295 -715l264 715h65l294 -715l265 715h64l-329 -921h-53l-306 741z" />
    <glyph glyph-name="X" unicode="X" 
d="M442 432q68 -36 105 -104.5t36 -149.5v-178h-59v210q2 63 -21 110.5t-68 67.5q-34 14 -72 8t-75 -28.5t-69 -61t-54 -88.5q-16 -38 -22 -82.5t-6 -79.5v-56h-137v73q0 53 12.5 109.5t33.5 97.5q23 43 53 76t65 56q-6 2 -12 5l-12 6q-34 18 -60.5 44.5t-44.5 59.5t-27 71
t-9 78v181q32 31 67.5 47.5t70.5 16.5v-260h1q-5 -67 18 -119.5t70 -72.5q34 -15 72 -8.5t74 30t68 62.5t53 89q15 34 22.5 68.5t8.5 66.5v144h59l-1 -176q0 -84 -42 -165q-23 -44 -54.5 -78.5t-68.5 -57.5q6 -3 12.5 -6t12.5 -6z" />
    <glyph glyph-name="Z" unicode="Z" horiz-adv-x="710" 
d="M610 857l-418 -793h418v-64h-491q-38 5 -67.5 21.5t-51.5 42.5l423 793h-423v65h610v-65z" />
    <glyph glyph-name="Y" unicode="Y" horiz-adv-x="718" 
d="M618 921v-64l-219 -857q-38 4 -67.5 21t-51.5 43l89 342q-56 -24 -115 -24t-113 29q-34 18 -60.5 44.5t-44.5 59.5t-27 71t-9 78v193q32 31 67.5 47.5t70.5 16.5v-273q-4 -67 18.5 -119t70.5 -72q38 -17 81 -7t83 42l115 429h112z" />
  </font>
</defs>
</svg>
